<svg width="220" height="50" xmlns="http://www.w3.org/2000/svg">

 <g>
  <title>background</title>
  <rect fill="none" id="canvas_background" height="52" width="222" y="-1" x="-1"/>
 </g>
 <g>
  <title>Layer 1</title>
  <g stroke="null" id="svg_1">
   <path stroke="null" id="svg_2" d="m114.017204,14.68471l-23.665459,0c-1.098572,0 -1.958412,0.926596 -1.991783,2.061102l-1.578568,23.973488l-2.335754,-0.102673l1.545197,-24.009422c0.171982,-2.29981 1.991806,-4.260809 4.36348,-4.260809l9.307068,0l0,-3.054438l2.335716,0l0,3.057004l12.022713,0l0,2.335748l-0.002609,0zm-16.075539,1.614489l-0.754646,2.885027l16.28093,0l0,2.335752l-16.866142,0l-1.511826,5.8368l6.388649,0l0,-4.188944l2.335754,0l0,4.188944l9.001617,0l0,2.335739l-9.001617,0l0,3.950241l9.789589,0l0,2.335747l-9.789589,0l0,4.704861l-2.335754,0l0,-4.704861l-10.716209,0l0,-2.335747l10.716209,0l0,-3.950241l-9.41227,0l2.094452,-8.172539l-3.262329,0l0,-2.335752l3.880936,0l0.893204,-3.470248l2.269043,0.585221z" fill="#5797C8"/>
   <path stroke="null" id="svg_3" d="m118.429482,20.421402l30.297966,0l0,2.335747l-22.017639,0l-3.642204,14.769108l19.681877,0c1.10112,0 1.991806,-0.895798 1.991806,-1.991802l0,-6.799335l2.335724,0l0,6.799335c0,2.369114 -1.922485,4.327549 -4.330093,4.327549l-22.428322,0l4.016975,-17.104855l-5.908676,0l0,-2.335747l0.002586,0zm1.273117,-9.548324l27.75428,0l0,2.335747l-27.75428,0l0,-2.335747z" fill="#5797C8"/>
   <path stroke="null" id="svg_4" d="m152.310623,32.269543l6.388672,-2.746426l0,-11.026781l-5.703354,0l1.47847,-7.315247l2.266418,0.446617l-0.926575,4.532887l2.88504,0l0,-6.765966l2.335739,0l0,6.765966l3.367569,0l0,2.335743l-3.367569,0l0,10.028307l3.708939,-1.611921l0.962585,2.163774l-4.671524,2.025169l0,9.412292l-2.335739,0l0,-8.416389l-5.426132,2.30238l-0.96254,-2.130405zm24.250687,5.87273l2.610413,0c1.10112,0 1.958405,-0.89323 1.958405,-1.958431l0,-18.406193c0,-1.098576 -0.857285,-1.958435 -1.958405,-1.958435l-0.893234,0c-0.859863,10.40819 -2.577011,17.859478 -4.499542,24.49197l-2.269012,-0.654522c1.855804,-6.491325 3.5755,-13.773205 4.396912,-23.837448l-3.675644,0c-1.167877,10.338886 -3.126312,17.859478 -5.254135,24.49197l-2.197144,-0.69046c2.025177,-6.422016 3.914276,-13.701332 5.082169,-23.80151l-4.052902,0l2.746429,-6.078074l2.163773,0.962533l-1.234589,2.746426l9.684357,0c2.371658,0 4.330124,1.991801 4.330124,4.330115l0,18.408758c0,2.335751 -1.958466,4.294186 -4.330124,4.294186l-2.610367,0l0,-2.340885l0.002518,0z" fill="#5797C8"/>
   <path stroke="null" id="svg_5" d="m196.361267,40.788597l0,-5.70076l-9.478989,1.406582l-0.374786,-2.333179l1.717163,-0.241276l0,-21.571002l-1.203827,0l0,-2.335746l12.882568,0l0,2.335746l-1.203827,0l0,19.989886l1.547745,-0.24128l0.377319,2.335751l-1.925064,0.310577l0,6.042133l-2.338303,0l0,0.002567zm-5.770065,-23.149555l5.770065,0l0,-5.29008l-5.770065,0l0,5.29008zm0,7.695131l5.770065,0l0,-5.359385l-5.770065,0l0,5.359385zm0,8.205912l5.770065,-0.859859l0,-5.012871l-5.770065,0l0,5.87273zm25.279968,7.112476l-6.73259,-11.989311c-1.167892,4.05291 -3.401001,7.761868 -7.453873,12.158714l-1.681183,-1.578552c4.155548,-4.602188 6.216614,-8.347088 7.179184,-12.674631l-6.594009,0l0,-2.335747l7.004684,0c0.274612,-2.027733 0.377304,-4.258245 0.377304,-6.765963l0,-0.790564l-6.388657,0l0,-2.335745l2.612991,0l-1.614471,-3.950233l2.163757,-0.857296l1.991776,4.810097l5.115524,0l1.991791,-4.810097l2.130463,0.857296l-1.614532,3.950233l2.643753,0l0,2.335745l-6.665833,0l0,0.790564c0,2.507717 -0.102676,4.704861 -0.343933,6.765963l7.969757,0l0,2.335747l-7.351181,0l7.28186,12.946711l-2.022583,1.13707z" fill="#5797C8"/>
  </g>
  <g stroke="null" id="svg_6">
   <path stroke="null" id="svg_7" d="m63.14357,13.948494l0.004539,-0.002275c-3.221077,-6.642218 -9.945129,-10.886236 -17.382957,-10.886236c-4.628181,0 -9.101791,1.663964 -12.600208,4.689562c-3.15744,2.725537 -5.344234,6.40126 -6.237597,10.44524c-3.193808,0.309151 -6.15803,1.709429 -8.44257,4.016699c-2.568687,2.593695 -3.984877,6.037552 -3.984877,9.69055c0,3.614347 1.391182,7.028654 3.918955,9.613253c2.466394,2.520954 5.751131,3.987152 9.270008,4.132633c0.08638,0.018185 0.172762,0.022732 0.263687,0.022732l28.701113,0c0.013638,0 0.022732,0 0.036369,0c0.00909,0 0.015911,0 0.025002,0c0.804707,0 1.457108,-0.647854 1.457108,-1.457108c0,-0.763786 -0.591026,-1.384361 -1.338902,-1.443466c-0.013634,-0.004543 -0.029549,-0.00909 -0.04546,-0.00909c-0.025009,0 -0.047737,-0.004543 -0.072746,-0.004543c-0.006813,0 -0.015911,0 -0.022728,0c-0.015911,0 -0.029552,0 -0.045464,0l-28.478338,0.018185c-0.059105,-0.009094 -0.118206,-0.013641 -0.179583,-0.018185c-2.846014,-0.070469 -5.510176,-1.22979 -7.501478,-3.268829c-1.993574,-2.041309 -3.093792,-4.737297 -3.093792,-7.587858c0,-2.889206 1.118404,-5.603376 3.148348,-7.651506c2.029945,-2.045858 4.732752,-3.189266 7.612865,-3.22109c0.706959,-0.00909 1.3048,-0.525103 1.416187,-1.222965c0.600121,-3.823484 2.550503,-7.326446 5.489719,-9.867855c2.971043,-2.568688 6.77179,-3.982603 10.706654,-3.982603c6.323975,0 12.031918,3.616621 14.771095,9.265461c0.21595,0.531923 0.738777,0.911545 1.347996,0.911545c0.804695,0 1.457088,-0.654676 1.457088,-1.459379c0,-0.263687 -0.075012,-0.509192 -0.200035,-0.722868z" fill="#5797C8"/>
   <rect stroke="null" id="svg_8" height="1.277" width="5.535" fill="#5797C8" transform="matrix(1.6471427785873414,1.5666723751068117,-1.5666723751068117,1.6471427785873414,14.404859009379544,-24.10112239046088) " y="5.780931" x="24.466716"/>
   <rect stroke="null" id="svg_9" height="1.276" width="3.749" fill="#5797C8" transform="matrix(1.6469154610633852,1.566899692630768,-1.566899692630768,1.6469154610633852,20.842718605345883,-39.149315158843905) " y="6.00922" x="35.053965"/>
   <rect stroke="null" id="svg_10" height="1.278" width="3.997" fill="#5797C8" transform="matrix(-1.6071348943710326,1.6075895294189455,-1.6075895294189455,-1.6071348943710326,85.00149851934354,7.43713820075998) " y="-0.106662" x="12.488642"/>
   <circle stroke="null" id="svg_11" r="4.657736" cy="35.134485" cx="55.505708" fill="#5797C8"/>
   <circle stroke="null" id="svg_12" r="4.657736" cy="24.575586" cx="65.898665" fill="#5797C8"/>
   <circle stroke="null" id="svg_13" r="4.657736" cy="34.402523" cx="75.902909" fill="#5797C8"/>
   <circle stroke="null" id="svg_14" r="4.657736" cy="22.654753" cx="42.389487" fill="#5797C8"/>
  </g>
 </g>
</svg>